<svg xmlns="http://www.w3.org/2000/svg" width="406.962" height="633.052" viewBox="0 0 406.962 633.052">
  <path id="Icon_ionic-md-female" data-name="Icon ionic-md-female" d="M414.837,205.731C414.837,93.392,323.694,2.25,211.356,2.25S7.875,93.392,7.875,205.731A203.448,203.448,0,0,0,177.442,406.386v70.653H75.7v67.827h101.74V635.3h67.827V544.866H347.01V477.039H245.269V406.386A203.448,203.448,0,0,0,414.837,205.731Zm-339.135,0c0-74.751,60.9-135.654,135.654-135.654S347.01,130.98,347.01,205.731s-60.9,135.654-135.654,135.654S75.7,280.482,75.7,205.731Z" transform="translate(-7.875 -2.25)" fill="rgba(110,110,110,0.04)"/>
</svg>
