<svg xmlns="http://www.w3.org/2000/svg" width="635.821" height="635.821" viewBox="0 0 635.821 635.821">
  <path id="Icon_ionic-md-male" data-name="Icon ionic-md-male" d="M565.832,3.375H370.2V76.739H514.019L350.937,239.668a219.433,219.433,0,0,0-127.47-40.656C101.958,199.012,3.375,297.6,3.375,419.1S101.958,639.2,223.467,639.2,443.559,540.613,443.559,419.1A219.433,219.433,0,0,0,402.9,291.634L565.832,128.552V272.376H639.2v-269ZM223.467,565.832c-80.853,0-146.728-65.875-146.728-146.728s65.875-146.728,146.728-146.728S370.2,338.251,370.2,419.1,304.32,565.832,223.467,565.832Z" transform="translate(-3.375 -3.375)" fill="rgba(110,110,110,0.06)"/>
</svg>
