<svg xmlns="http://www.w3.org/2000/svg" width="18" height="18" viewBox="0 0 18 18">
  <path id="Icon_ionic-ios-star" data-name="Icon ionic-ios-star" d="M19.567,9.606h-5.91l-1.8-5.772a.636.636,0,0,0-1.221,0l-1.8,5.772H2.893a.671.671,0,0,0-.643.692.546.546,0,0,0,.012.117.678.678,0,0,0,.269.489L7.389,14.59,5.525,20.427a.726.726,0,0,0,.221.779.6.6,0,0,0,.362.169.753.753,0,0,0,.4-.156L11.25,17.58l4.741,3.639a.72.72,0,0,0,.4.156.558.558,0,0,0,.358-.169.717.717,0,0,0,.221-.779L15.107,14.59l4.817-3.721.117-.108a.749.749,0,0,0,.209-.463A.7.7,0,0,0,19.567,9.606Z" transform="translate(-2.25 -3.375)" fill="#fac57e"/>
</svg>
