<svg xmlns="http://www.w3.org/2000/svg" width="30" height="30" viewBox="0 0 30 30">
  <g id="circle-viber" transform="translate(-93.758)">
    <circle id="Ellipse_5" data-name="Ellipse 5" cx="15" cy="15" r="15" transform="translate(93.758)" fill="#262626"/>
    <path id="viber" d="M14.91,13.025a7.015,7.015,0,0,1-3.3,1.443,16,16,0,0,1-4.453.256L4.256,16.9V14.179a6.12,6.12,0,0,1-2.243-1.154A5.429,5.429,0,0,1,.528,10.61a10.054,10.054,0,0,1,0-6.43A5.455,5.455,0,0,1,2.02,1.756,6.57,6.57,0,0,1,4.783.453a15.146,15.146,0,0,1,7.357,0,6.57,6.57,0,0,1,2.763,1.3A5.455,5.455,0,0,1,16.395,4.18a10.054,10.054,0,0,1,0,6.43A5.429,5.429,0,0,1,14.91,13.025ZM5.311,7.4V6.347A.943.943,0,0,0,5.1,5.787a1.348,1.348,0,0,0-.437-.4q-.231-.123-.346-.025l-.759.775a1.857,1.857,0,0,0-.19,2A6.838,6.838,0,0,0,5.1,10.774a6.853,6.853,0,0,0,2.639,1.731q1.36.453,1.988-.189l.775-.775q.116-.1-.008-.338a1.266,1.266,0,0,0-.4-.437.957.957,0,0,0-.561-.2H8.478l-.61.528A4.662,4.662,0,0,1,6.062,9.818,4.618,4.618,0,0,1,4.783,8Z" transform="translate(100.415 6.657)" fill="#fff"/>
    <path id="Path_40" data-name="Path 40" d="M107,216.1a2.675,2.675,0,0,1,1.7.842,2.534,2.534,0,0,1,.807,1.649" transform="translate(0.12 -203.261)" fill="none" stroke="#262626" stroke-width="1"/>
    <path id="Path_41" data-name="Path 41" d="M104.98,216.075a5.729,5.729,0,0,1,3.136,1.556,5.545,5.545,0,0,1,1.381,2.914" transform="translate(2.121 -205.132)" fill="none" stroke="#262626" stroke-width="1"/>
    <path id="Path_42" data-name="Path 42" d="M102.892,215.519a6.877,6.877,0,0,1,4.669,2.085,7.263,7.263,0,0,1,1.988,4.257" transform="translate(4.127 -206.424)" fill="none" stroke="#262626" stroke-width="1"/>
  </g>
</svg>
